<svg width="20" height="17" viewBox="0 0 20 17" fill="none" xmlns="http://www.w3.org/2000/svg">
<path d="M0 8.21146C0 7.75122 0.342005 7.37086 0.785733 7.31067L0.909091 7.30237L16.8897 7.3031L11.1164 1.55336C10.7606 1.19911 10.7594 0.623503 11.1136 0.267717C11.4357 -0.0557251 11.9406 -0.086153 12.2971 0.177145L12.3993 0.264948L19.7326 7.56677C19.7795 7.61346 19.8202 7.664 19.8548 7.71737C19.8646 7.73344 19.8745 7.74987 19.8839 7.76663C19.8926 7.78101 19.9004 7.79593 19.9078 7.81101C19.9181 7.83297 19.9281 7.85564 19.9372 7.87878C19.9446 7.89663 19.9508 7.91398 19.9564 7.93147C19.9631 7.95316 19.9696 7.97627 19.9752 7.99974C19.9794 8.01612 19.9827 8.03189 19.9855 8.04772C19.9896 8.07127 19.993 8.09564 19.9955 8.12031C19.9976 8.13912 19.9989 8.15775 19.9996 8.17641C19.9998 8.18772 20 8.19956 20 8.21146L19.9995 8.24668C19.9988 8.26452 19.9976 8.28234 19.9959 8.30013L20 8.21146C20 8.26883 19.9947 8.32495 19.9845 8.37937C19.9822 8.39237 19.9794 8.40571 19.9762 8.419C19.9698 8.44637 19.9623 8.47272 19.9537 8.49856C19.9495 8.51139 19.9446 8.52511 19.9394 8.53872C19.9287 8.56608 19.9172 8.59215 19.9045 8.61755C19.8986 8.6295 19.892 8.642 19.885 8.65438C19.8737 8.67457 19.862 8.69376 19.8496 8.71246C19.8409 8.7257 19.8312 8.73948 19.8211 8.75304L19.8132 8.76351C19.7888 8.79551 19.7622 8.82584 19.7337 8.85428L19.7326 8.85513L12.3993 16.1582C12.0436 16.5124 11.468 16.5113 11.1137 16.1555C10.7916 15.8321 10.7633 15.327 11.0281 14.9716L11.1163 14.8699L16.8873 9.12128L0.909091 9.12055C0.407014 9.12055 0 8.71354 0 8.21146Z" fill="white"/>
</svg>
