<svg width="25" height="24" viewBox="0 0 25 24" fill="none" xmlns="http://www.w3.org/2000/svg">
<path fill-rule="evenodd" clip-rule="evenodd" d="M12.4983 1.2689C14.4838 0.0135768 17.1215 -0.333225 19.4001 0.397013C24.3567 1.99548 25.8953 7.399 24.5191 11.6986C22.3955 18.4515 13.3262 23.4887 12.9415 23.6999C12.8048 23.7756 12.6533 23.8135 12.5019 23.8135C12.3505 23.8135 12.2003 23.7768 12.0635 23.7024C11.6813 23.4935 2.67789 18.5309 0.483516 11.6998C0.482295 11.6998 0.482295 11.6986 0.482295 11.6986C-0.895144 7.39777 0.6386 1.99304 5.5903 0.397013C7.91534 -0.355206 10.4492 -0.0242784 12.4983 1.2689ZM6.15202 2.14079C2.14548 3.43275 1.13927 7.74213 2.2273 11.1406C3.93933 16.4671 10.7032 20.7741 12.5007 21.8401C14.3043 20.7631 21.117 16.4085 22.7741 11.1454C23.8621 7.74336 22.8522 3.43397 18.8396 2.14079C16.8956 1.51679 14.6279 1.89657 13.0624 3.10793C12.7352 3.35948 12.2809 3.36437 11.9512 3.11526C10.2929 1.86848 8.12659 1.50336 6.15202 2.14079ZM17.6673 4.56584C19.3317 5.10436 20.4979 6.57827 20.6408 8.32083C20.6811 8.82516 20.3062 9.26721 19.8019 9.30751C19.7762 9.30995 19.7518 9.31117 19.7261 9.31117C19.2536 9.31117 18.853 8.94849 18.814 8.46981C18.7334 7.46604 18.0617 6.61857 17.1056 6.30962C16.6232 6.15332 16.3595 5.63678 16.5146 5.15687C16.6721 4.67574 17.1837 4.41442 17.6673 4.56584Z" fill="white"/>
</svg>
